<svg width="16" height="16" viewBox="0 0 16 16" fill="none" xmlns="http://www.w3.org/2000/svg">
  <path d="M2 2L14 14" stroke="currentColor" stroke-width="1.3" stroke-linecap="round"/>
  <path d="M6.5 3.3C7 3.1 7.5 3 8 3C12.5 3 15 8 15 8C14.5 9 13.7 10.2 12.7 11.1" stroke="currentColor" stroke-width="1.3" stroke-linecap="round"/>
  <path d="M4.1 4.9C2.8 5.9 1.7 7.3 1 8C1 8 3.5 13 8 13C9.2 13 10.3 12.6 11.2 12" stroke="currentColor" stroke-width="1.3" stroke-linecap="round"/>
  <path d="M5.8 8.5C6 9.4 6.9 10.2 8 10.2C8.5 10.2 9 10 9.4 9.7" stroke="currentColor" stroke-width="1.3" stroke-linecap="round"/>
</svg>
